<svg width="68" height="68" viewBox="0 0 68 68" fill="none" xmlns="http://www.w3.org/2000/svg">
<path d="M46.7471 0C43.1218 0.250749 38.8846 2.57123 36.4154 5.59297C34.1629 8.3342 32.3099 12.4057 33.0324 16.3624C36.9934 16.4857 41.0861 14.1099 43.4576 11.0372C45.6761 8.17695 47.3548 4.13098 46.7471 0Z" fill="black"/>
<path d="M61.0738 22.8137C57.5931 18.449 52.7014 15.916 48.0816 15.916C41.9829 15.916 39.4032 18.8357 35.166 18.8357C30.797 18.8357 27.4778 15.9245 22.2035 15.9245C17.0228 15.9245 11.5064 19.0907 8.00863 24.5052C3.09141 32.1297 3.9329 46.4648 11.9016 58.675C14.7533 63.044 18.5613 67.957 23.5423 67.9995C27.975 68.042 29.2245 65.1562 35.2297 65.1265C41.2349 65.0925 42.3739 68.0377 46.7981 67.991C51.7834 67.9527 55.7996 62.5085 58.6513 58.1395C60.6956 55.0073 61.4563 53.4305 63.0415 49.8946C51.5114 45.5043 49.6626 29.1079 61.0738 22.8137Z" fill="black"/>
</svg>
